# xmcd CD database file
#
# Track frame offsets:
#	150
#	12808
#	31099
#	44830
#	61495
#	77412
#	88602
#	105296
#	120363
#	134357
#	157880
#	169031
#	184304
#	196054
#
# Disc length: 2793 seconds
#
# Revision: 0
# Processed by: cddbd v1.5.2PL0 Copyright (c) Steve Scherf et al.
# Submitted via: CDex 1.70beta2
#
DISCID=a30ae70e
DTITLE=Peter Herbholzheimer - Soul Puppets
DYEAR=2011
DGENRE=Jazz
TTITLE0=Latin Groove
TTITLE1=Count Down
TTITLE2=Botafogo
TTITLE3=Groovy Spider
TTITLE4=Soul Puppets
TTITLE5=Knock Rock
TTITLE6=Why Is The Sun Never Crying
TTITLE7=Hot Spot
TTITLE8=Walking Tiger
TTITLE9=Orange Faces
TTITLE10=One For Mamy
TTITLE11=Smiling Lips
TTITLE12=Honkey Tonk Monkey
TTITLE13=Windy Corner
EXTD=YEAR: 2011
EXTT0=
EXTT1=
EXTT2=
EXTT3=
EXTT4=
EXTT5=
EXTT6=
EXTT7=
EXTT8=
EXTT9=
EXTT10=
EXTT11=
EXTT12=
EXTT13=
PLAYORDER=
